<svg width="158" height="158" viewBox="0 0 158 158" fill="none" xmlns="http://www.w3.org/2000/svg">
<rect width="158" height="158" rx="42" fill="#0169FE"/>
<path d="M103.607 40.8316C105.608 38.3479 109.392 38.3479 111.393 40.8316L112.573 42.2959C113.129 42.9857 113.858 43.5154 114.686 43.8309L116.443 44.5005C119.424 45.6364 120.593 49.2351 118.849 51.906L117.821 53.4807C117.337 54.2225 117.059 55.0796 117.014 55.9643L116.92 57.8425C116.761 61.0282 113.7 63.2523 110.621 62.4193L108.806 61.9282C107.951 61.6969 107.049 61.6969 106.194 61.9282L104.379 62.4193C101.3 63.2523 98.2388 61.0282 98.0795 57.8425L97.9856 55.9643C97.9414 55.0796 97.6629 54.2225 97.1786 53.4807L96.1507 51.906C94.407 49.2351 95.5763 45.6364 98.5569 44.5005L100.314 43.8309C101.142 43.5154 101.871 42.9857 102.427 42.2959L103.607 40.8316Z" fill="white" fill-opacity="0.9"/>
<path d="M123 79.5C123 88.1035 120.449 96.5138 115.669 103.667C110.889 110.821 104.095 116.396 96.1467 119.689C88.1981 122.981 79.4517 123.843 71.0136 122.164C62.5754 120.486 54.8244 116.343 48.7409 110.259C42.6573 104.176 38.5143 96.4246 36.8358 87.9864C35.1574 79.5483 36.0188 70.8019 39.3112 62.8533C42.6037 54.9047 48.1792 48.1109 55.3327 43.3311C62.4862 38.5512 70.8965 36 79.5 36L79.5 56.3762C74.9265 56.3762 70.4558 57.7324 66.6531 60.2732C62.8504 62.8141 59.8866 66.4256 58.1364 70.6509C56.3862 74.8762 55.9282 79.5256 56.8205 84.0112C57.7127 88.4968 59.9151 92.6171 63.149 95.851C66.3829 99.0849 70.5032 101.287 74.9888 102.18C79.4743 103.072 84.1238 102.614 88.3491 100.864C92.5744 99.1134 96.1859 96.1496 98.7268 92.3469C101.268 88.5442 102.624 84.0735 102.624 79.5H123Z" fill="white" fill-opacity="0.9"/>
<path d="M103.607 40.8316C105.608 38.3479 109.392 38.3479 111.393 40.8316L112.573 42.2959C113.129 42.9857 113.858 43.5154 114.686 43.8309L116.443 44.5005C119.424 45.6364 120.593 49.2351 118.849 51.906L117.821 53.4807C117.337 54.2225 117.059 55.0796 117.014 55.9643L116.92 57.8425C116.761 61.0282 113.7 63.2523 110.621 62.4193L108.806 61.9282C107.951 61.6969 107.049 61.6969 106.194 61.9282L104.379 62.4193C101.3 63.2523 98.2388 61.0282 98.0795 57.8425L97.9856 55.9643C97.9414 55.0796 97.6629 54.2225 97.1786 53.4807L96.1507 51.906C94.407 49.2351 95.5763 45.6364 98.5569 44.5005L100.314 43.8309C101.142 43.5154 101.871 42.9857 102.427 42.2959L103.607 40.8316Z" fill="white" fill-opacity="0.4"/>
<path d="M123 79.5C123 88.1035 120.449 96.5138 115.669 103.667C110.889 110.821 104.095 116.396 96.1467 119.689C88.1981 122.981 79.4517 123.843 71.0136 122.164C62.5754 120.486 54.8244 116.343 48.7409 110.259C42.6573 104.176 38.5143 96.4246 36.8358 87.9864C35.1574 79.5483 36.0188 70.8019 39.3112 62.8533C42.6037 54.9047 48.1792 48.1109 55.3327 43.3311C62.4862 38.5512 70.8965 36 79.5 36L79.5 56.3762C74.9265 56.3762 70.4558 57.7324 66.6531 60.2732C62.8504 62.8141 59.8866 66.4256 58.1364 70.6509C56.3862 74.8762 55.9282 79.5256 56.8205 84.0112C57.7127 88.4968 59.9151 92.6171 63.149 95.851C66.3829 99.0849 70.5032 101.287 74.9888 102.18C79.4743 103.072 84.1238 102.614 88.3491 100.864C92.5744 99.1134 96.1859 96.1496 98.7268 92.3469C101.268 88.5442 102.624 84.0735 102.624 79.5H123Z" fill="white" fill-opacity="0.4"/>
</svg>
